<svg xmlns="http://www.w3.org/2000/svg" version="1.1" xmlns:xlink="http://www.w3.org/1999/xlink" xmlns:svgjs="http://svgjs.dev/svgjs" viewBox="0 0 800 800"><defs><linearGradient x1="50%" y1="0%" x2="50%" y2="100%" id="ccchaos-grad"><stop stop-color="hsl(206, 75%, 49%)" stop-opacity="1" offset="0%"></stop><stop stop-color="hsl(331, 90%, 56%)" stop-opacity="1" offset="100%"></stop></linearGradient></defs><g stroke-width="2" stroke="url(#ccchaos-grad)" fill="none" stroke-linecap="round"><path d="M381.18 106.71C390.6 109.55 400.04 113.07 409.48 117.1 418.93 121.07 428.4 125.29 437.89 129.63 447.42 133.57 457 137.47 466.63 141.26 476.34 144.49 486.14 147.59 496.03 150.58 506.04 153.03 516.16 155.45 526.39 157.91 536.75 160.01 547.22 162.29 557.75 164.83 568.38 167.24 579.04 170.06 589.63 173.32 600.22 176.67 610.64 180.58 620.78 185.06 630.72 189.76 640.2 195.06 649.09 200.95 657.51 207.11 665.14 213.84 671.81 221.08 677.79 228.58 682.64 236.55 686.26 244.91 689.05 253.48 690.55 262.39 690.74 271.57 690.18 280.88 688.42 290.41 685.57 300.08 682.31 309.84 678.26 319.7 673.6 329.59 669.11 339.53 664.44 349.47 659.82 359.36 656 369.27 652.64 379.1 649.89 388.81 648.4 398.51 647.73 407.85 647.85 416.8 649.18 425.74 651.11 434.3 653.5 442.46 656.68 450.62 659.95 458.41 663.11 465.84 666.5 473.31 669.4 480.47 671.62 487.36 673.57 494.38 674.57 501.22 674.53 507.93 673.89 514.89 672.1 521.86 669.17 528.91 665.54 536.36 660.8 544.02 655.04 551.96 648.67 560.42 641.41 569.26 633.37 578.48 624.9 588.24 615.83 598.37 606.28 608.8 596.49 619.59 586.36 630.49 576.01 641.34 565.57 652.14 555.01 662.53 544.4 672.26 533.8 681.37 523.2 689.39 512.66 696.08 502.17 701.61 491.74 705.48 481.41 707.55 471.14 708.26 460.96 707.14 450.87 704.26 440.83 700.32 430.87 695.01 421 688.57 411.16 681.94 401.39 674.88 391.71 667.75 382.03 661.51 372.66 656 363.59 651.46 354.51 648.43 345.72 646.54 337.23 645.75 328.71 646.42 320.48 647.91 312.54 650.01 304.56 652.99 296.86 656.06 289.44 658.94 281.96 661.93 274.74 664.23 267.78 665.63 260.72 666.53 253.89 666.23 247.29 664.68 240.56 662.3 234.02 658.6 227.67 653.66 221.15 647.91 214.8 641.03 208.61 633.18 202.24 624.72 196.01 615.49 189.94 605.68 183.68 595.51 177.59 584.95 171.7 574.13 165.65 563.19 159.83 552.14 154.26 541.08 148.62 530.03 143.28 519.03 138.31 508.15 133.35 497.34 128.81 486.65 124.74 476.11 120.79 465.64 117.36 455.3 114.52 445.11 111.87 434.97 109.84 424.94 108.48 415.03 107.36 405.15 106.92 395.37 107.2 385.71 107.72 376.05 108.92 366.72 110.76 357.74 112.77 348.76 115.37 340.11 118.5 331.82 121.7 323.53 125.37 315.59 129.46 308.03 133.52 300.45 137.94 293.24 142.65 286.4 147.25 279.53 152.11 273 157.18 266.81 162.07 260.53 167.16 254.54 172.42 248.81 177.47 242.91 182.7 237.2 188.09 231.64 193.28 225.81 198.66 220.04 204.22 214.3 209.62 208.21 215.25 202.07 221.11 195.88 226.85 189.29 232.85 182.63 239.12 175.92 245.32 168.88 251.82 161.85 258.61 154.92 265.37 147.83 272.43 140.98 279.8 134.48 287.15 128.11 294.8 122.3 302.74 117.17 310.68 112.46 318.9 108.61 327.38 105.75 335.86 103.49 344.59 102.29 353.57 102.19 362.53 102.69 371.74 104.21 381.17 106.7" stroke-dasharray="7 10" transform="rotate(0, 400, 400)" opacity="0.95"></path><path d="M384.12 117.5C393.25 120.31 402.43 123.77 411.63 127.72 420.85 131.64 430.13 135.81 439.44 140.13 448.8 144.08 458.22 148.02 467.71 151.88 477.28 155.21 486.94 158.43 496.67 161.53 506.51 164.12 516.45 166.67 526.45 169.21 536.56 171.39 546.73 173.69 556.91 176.2 567.14 178.53 577.32 181.19 587.39 184.24 597.39 187.3 607.15 190.85 616.58 194.91 625.76 199.11 634.44 203.88 642.49 209.18 650.08 214.7 656.86 220.76 662.71 227.31 667.9 234.09 672.03 241.33 675.01 248.98 677.24 256.81 678.29 265 678.16 273.48 677.38 282.09 675.54 290.94 672.72 299.96 669.59 309.07 665.76 318.31 661.4 327.62 657.24 336.97 652.94 346.36 648.67 355.73 645.15 365.12 642.03 374.47 639.46 383.73 638.02 392.99 637.3 401.93 637.3 410.54 638.39 419.15 640.02 427.43 642.07 435.39 644.87 443.36 647.77 451.03 650.6 458.41 653.7 465.86 656.38 473.08 658.49 480.11 660.42 487.29 661.53 494.36 661.71 501.39 661.42 508.67 660.08 516.01 657.7 523.48 654.73 531.32 650.71 539.39 645.73 547.73 640.19 556.52 633.78 565.63 626.6 575.07 619 584.92 610.77 595.04 602.02 605.33 593.02 615.85 583.63 626.36 573.96 636.68 564.16 646.83 554.19 656.48 544.1 665.39 534 673.63 523.85 680.78 513.7 686.62 503.59 691.36 493.5 694.53 483.48 696.03 473.51 696.3 463.6 694.9 453.78 691.9 444 688 434.3 682.85 424.7 676.71 415.11 670.41 405.61 663.72 396.2 656.96 386.79 651.01 377.69 645.7 368.89 641.24 360.08 638.15 351.55 636.07 343.32 634.98 335.06 635.25 327.08 636.29 319.37 637.91 311.62 640.42 304.13 643.07 296.9 645.62 289.61 648.39 282.55 650.61 275.73 652.11 268.81 653.24 262.1 653.35 255.59 652.35 248.95 650.68 242.49 647.81 236.2 643.78 229.75 639.03 223.44 633.19 217.3 626.4 210.97 619.01 204.79 610.83 198.76 602 192.57 592.79 186.54 583.1 180.71 573.09 174.74 562.89 169 552.49 163.52 542 157.97 531.46 152.74 520.9 147.86 510.4 143.01 499.93 138.58 489.54 134.6 479.27 130.75 469.05 127.42 458.95 124.65 448.99 122.08 439.06 120.12 429.27 118.81 419.61 117.74 409.98 117.34 400.46 117.64 391.1 118.17 381.73 119.37 372.72 121.19 364.07 123.19 355.4 125.76 347.09 128.84 339.13 132.01 331.16 135.63 323.53 139.66 316.26 143.68 308.97 148.03 302.01 152.69 295.39 157.24 288.71 162.05 282.33 167.07 276.24 171.92 270.04 176.97 264.08 182.18 258.33 187.19 252.39 192.37 246.58 197.7 240.89 202.83 234.92 208.15 228.99 213.63 223.06 218.94 216.79 224.46 210.48 230.18 204.13 235.78 197.42 241.62 190.66 247.7 183.89 253.69 176.84 259.96 169.86 266.49 163.01 272.98 156.06 279.75 149.4 286.81 143.12 293.83 137.01 301.15 131.46 308.75 126.61 316.33 122.18 324.2 118.6 332.33 115.97 340.44 113.92 348.83 112.89 357.47 112.9 366.09 113.47 374.98 115.02 384.11 117.49" stroke-dasharray="8 3" transform="rotate(4.04, 400, 400)" opacity="0.89"></path><path d="M387.75 128.28C396.59 131.05 405.51 134.45 414.47 138.32 423.45 142.18 432.5 146.3 441.61 150.57 450.76 154.53 460 158.49 469.29 162.4 478.66 165.82 488.1 169.15 497.62 172.37 507.21 175.1 516.87 177.77 526.58 180.42 536.34 182.7 546.12 185.06 555.86 187.57 565.61 189.88 575.25 192.45 584.72 195.33 594.07 198.18 603.14 201.44 611.81 205.15 620.22 208.94 628.09 213.23 635.31 218.01 642.08 222.96 648.06 228.41 653.13 234.33 657.6 240.43 661.07 246.99 663.47 253.95 665.21 261.07 665.88 268.55 665.48 276.34 664.54 284.25 662.65 292.42 659.9 300.8 656.92 309.25 653.33 317.86 649.28 326.58 645.44 335.35 641.47 344.18 637.55 353.04 634.32 361.91 631.43 370.78 629.02 379.61 627.64 388.45 626.89 397.03 626.76 405.34 627.63 413.65 628.99 421.7 630.72 429.49 633.16 437.31 635.7 444.9 638.2 452.29 641 459.75 643.45 467.06 645.42 474.25 647.29 481.6 648.44 488.91 648.8 496.23 648.76 503.8 647.8 511.47 645.9 519.28 643.49 527.43 640.13 535.8 635.86 544.42 631.08 553.41 625.47 562.66 619.12 572.15 612.35 581.95 604.95 591.91 597.02 601.94 588.81 612.06 580.18 622.06 571.22 631.76 562.12 641.2 552.78 650.06 543.29 658.13 533.74 665.52 524.1 671.82 514.42 676.84 504.75 680.84 495.07 683.37 485.42 684.35 475.8 684.23 466.22 682.6 456.72 679.53 447.24 675.68 437.83 670.72 428.51 664.86 419.21 658.9 409.98 652.57 400.85 646.17 391.72 640.5 382.88 635.39 374.34 631.03 365.79 627.9 357.51 625.66 349.51 624.31 341.49 624.2 333.72 624.82 326.22 625.99 318.67 628.02 311.36 630.24 304.3 632.45 297.16 634.94 290.24 637.03 283.54 638.52 276.74 639.79 270.12 640.2 263.69 639.65 257.13 638.55 250.74 636.39 244.5 633.17 238.11 629.32 231.85 624.45 225.75 618.66 219.48 612.3 213.35 605.15 207.38 597.32 201.26 589.09 195.3 580.33 189.54 571.18 183.67 561.8 178.02 552.15 172.63 542.33 167.21 532.42 162.08 522.43 157.32 512.42 152.59 502.4 148.27 492.42 144.41 482.52 140.67 472.64 137.44 462.85 134.77 453.19 132.28 443.56 130.4 434.04 129.15 424.67 128.13 415.32 127.76 406.09 128.07 397.02 128.62 387.95 129.81 379.23 131.61 370.87 133.59 362.49 136.11 354.46 139.14 346.78 142.26 339.07 145.83 331.7 149.79 324.66 153.74 317.57 158.04 310.79 162.63 304.31 167.12 297.76 171.87 291.46 176.83 285.41 181.64 279.23 186.64 273.24 191.8 267.42 196.77 261.39 201.9 255.47 207.19 249.63 212.28 243.51 217.53 237.41 222.95 231.31 228.19 224.89 233.62 218.44 239.24 211.95 244.72 205.16 250.42 198.35 256.34 191.57 262.16 184.57 268.23 177.67 274.55 170.95 280.81 164.19 287.33 157.74 294.12 151.72 300.87 145.88 307.89 140.63 315.18 136.07 322.45 131.93 330 128.62 337.81 126.22 345.6 124.38 353.67 123.5 361.99 123.62 370.31 124.26 378.89 125.83 387.74 128.28" stroke-dasharray="5 0" transform="rotate(8.08, 400, 400)" opacity="0.14"></path><path d="M391.9 139.07C400.46 141.79 409.11 145.11 417.82 148.91 426.54 152.69 435.35 156.74 444.22 160.96 453.13 164.91 462.12 168.88 471.17 172.82 480.27 176.33 489.44 179.75 498.67 183.08 507.94 185.94 517.25 188.75 526.57 191.52 535.91 193.91 545.23 196.37 554.46 198.92 563.65 201.24 572.7 203.77 581.51 206.55 590.17 209.25 598.51 212.3 606.42 215.72 614.05 219.18 621.12 223.08 627.54 227.42 633.53 231.87 638.74 236.78 643.1 242.13 646.9 247.62 649.78 253.54 651.66 259.86 652.99 266.31 653.34 273.12 652.72 280.25 651.67 287.49 649.78 295 647.12 302.74 644.3 310.55 640.96 318.55 637.21 326.69 633.69 334.86 630.06 343.15 626.46 351.5 623.5 359.87 620.84 368.29 618.58 376.71 617.26 385.14 616.49 393.38 616.25 401.41 616.92 409.45 618.02 417.3 619.45 424.97 621.54 432.66 623.75 440.2 625.92 447.6 628.41 455.09 630.62 462.49 632.42 469.84 634.19 477.34 635.34 484.85 635.8 492.42 635.96 500.21 635.3 508.13 633.81 516.2 631.88 524.56 629.08 533.11 625.45 541.87 621.37 550.93 616.51 560.18 610.92 569.58 604.96 579.19 598.36 588.86 591.22 598.49 583.8 608.11 575.94 617.5 567.72 626.52 559.34 635.2 550.67 643.25 541.81 650.47 532.87 657.01 523.8 662.49 514.64 666.74 505.46 670.05 496.24 671.99 487.02 672.51 477.8 672.06 468.61 670.25 459.46 667.14 450.33 663.37 441.25 658.6 432.24 653.03 423.24 647.4 414.31 641.43 405.47 635.39 396.62 630 388.05 625.09 379.76 620.83 371.46 617.67 363.42 615.31 355.64 613.73 347.84 613.28 340.27 613.5 332.96 614.24 325.59 615.81 318.44 617.6 311.52 619.44 304.53 621.62 297.73 623.51 291.13 624.93 284.43 626.24 277.9 626.84 271.54 626.62 265.06 625.98 258.72 624.41 252.53 621.89 246.2 618.83 240 614.83 233.95 609.96 227.74 604.58 221.68 598.4 215.77 591.55 209.73 584.31 203.86 576.5 198.19 568.25 192.43 559.74 186.89 550.91 181.61 541.84 176.32 532.64 171.32 523.3 166.68 513.88 162.09 504.42 157.9 494.94 154.16 485.49 150.55 476.04 147.43 466.65 144.86 457.36 142.47 448.08 140.67 438.9 139.48 429.85 138.51 420.81 138.18 411.89 138.51 403.11 139.06 394.34 140.25 385.91 142.02 377.81 143.96 369.71 146.44 361.93 149.4 354.48 152.46 346.99 155.96 339.82 159.84 332.94 163.73 326.01 167.95 319.35 172.45 312.96 176.89 306.47 181.57 300.2 186.46 294.14 191.22 287.93 196.16 281.88 201.27 275.96 206.2 269.83 211.29 263.78 216.53 257.78 221.58 251.52 226.79 245.27 232.14 239.02 237.33 232.49 242.68 225.93 248.21 219.36 253.6 212.54 259.19 205.73 264.98 198.98 270.66 192.08 276.57 185.32 282.7 178.77 288.77 172.23 295.08 166.04 301.63 160.29 308.14 154.76 314.91 149.82 321.93 145.56 328.93 141.71 336.19 138.67 343.71 136.51 351.21 134.86 358.98 134.14 367.01 134.36 375.03 135.06 383.33 136.65 391.89 139.07" stroke-dasharray="5 8" transform="rotate(12.12, 400, 400)" opacity="0.19"></path><path d="M396.4 149.86C404.68 152.53 413.05 155.77 421.49 159.47 429.94 163.16 438.47 167.14 447.06 171.3 455.69 175.22 464.39 179.19 473.14 183.14 481.92 186.71 490.76 190.22 499.62 193.64 508.51 196.64 517.41 199.58 526.27 202.47 535.13 205 543.92 207.55 552.58 210.18 561.17 212.55 569.56 215.08 577.69 217.82 585.64 220.43 593.24 223.33 600.38 226.55 607.24 229.75 613.54 233.34 619.19 237.31 624.44 241.34 628.94 245.79 632.64 250.64 635.85 255.6 638.19 260.95 639.63 266.69 640.6 272.53 640.69 278.72 639.92 285.24 638.79 291.84 636.93 298.73 634.39 305.86 631.76 313.06 628.65 320.47 625.21 328.05 621.99 335.66 618.68 343.42 615.4 351.3 612.7 359.18 610.25 367.15 608.15 375.19 606.88 383.24 606.09 391.16 605.76 398.94 606.25 406.72 607.11 414.39 608.26 421.94 610.03 429.52 611.9 437.01 613.76 444.43 615.95 451.93 617.9 459.4 619.52 466.87 621.16 474.48 622.27 482.14 622.78 489.89 623.07 497.82 622.64 505.89 621.47 514.11 619.95 522.55 617.64 531.16 614.57 539.93 611.12 548.91 606.92 558.01 602.05 567.19 596.83 576.48 590.99 585.73 584.62 594.86 577.98 603.89 570.87 612.61 563.39 620.88 555.73 628.77 547.77 636 539.56 642.39 531.27 648.11 522.79 652.8 514.19 656.34 505.56 659.01 496.84 660.42 488.09 660.54 479.34 659.81 470.56 657.85 461.81 654.73 453.06 651.06 444.34 646.5 435.67 641.22 427.01 635.92 418.4 630.3 409.85 624.6 401.3 619.49 393 614.79 384.97 610.64 376.91 607.48 369.11 605.01 361.54 603.23 353.95 602.48 346.58 602.33 339.43 602.67 332.23 603.8 325.24 605.17 318.45 606.62 311.58 608.47 304.9 610.11 298.39 611.39 291.79 612.67 285.35 613.36 279.05 613.36 272.65 613.07 266.38 611.96 260.24 610.02 253.98 607.64 247.85 604.41 241.85 600.36 235.73 595.86 229.75 590.61 223.92 584.69 217.98 578.4 212.22 571.53 206.65 564.18 201.01 556.57 195.6 548.59 190.46 540.31 185.31 531.89 180.46 523.26 175.96 514.5 171.52 505.67 167.48 496.77 163.87 487.85 160.39 478.92 157.4 469.99 154.93 461.13 152.66 452.26 150.93 443.47 149.81 434.77 148.9 426.08 148.61 417.49 148.95 409.02 149.51 400.56 150.67 392.4 152.4 384.56 154.31 376.71 156.73 369.16 159.62 361.89 162.61 354.6 166.03 347.58 169.81 340.83 173.62 334.01 177.75 327.43 182.17 321.07 186.53 314.62 191.13 308.35 195.95 302.24 200.65 295.99 205.53 289.86 210.57 283.82 215.46 277.59 220.5 271.42 225.68 265.28 230.7 258.91 235.86 252.54 241.15 246.17 246.29 239.57 251.59 232.95 257.04 226.35 262.35 219.56 267.85 212.8 273.52 206.15 279.09 199.39 284.86 192.82 290.84 186.48 296.74 180.21 302.87 174.31 309.22 168.86 315.52 163.65 322.07 159.03 328.86 155.08 335.61 151.53 342.61 148.76 349.87 146.82 357.1 145.38 364.6 144.8 372.35 145.11 380.1 145.88 388.11 147.47 396.39 149.86" stroke-dasharray="1 2" transform="rotate(16.16, 400, 400)" opacity="0.13"></path><path d="M401.05 160.65C409.05 163.26 417.12 166.41 425.26 170 433.42 173.61 441.64 177.5 449.93 181.58 458.23 185.46 466.59 189.41 474.99 193.37 483.4 196.98 491.85 200.55 500.29 204.06 508.73 207.18 517.16 210.24 525.51 213.26 533.83 215.92 542.04 218.59 550.09 221.31 558.04 223.77 565.76 226.34 573.18 229.08 580.42 231.65 587.27 234.47 593.66 237.55 599.77 240.57 605.33 243.92 610.26 247.6 616.75 253.33 625.39 266.73 627.4 274.39 628.07 279.69 627.95 285.33 627.07 291.29 625.91 297.31 624.11 303.62 621.72 310.2 619.27 316.82 616.42 323.68 613.27 330.74 610.36 337.82 607.35 345.08 604.36 352.49 601.91 359.92 599.67 367.47 597.71 375.15 596.51 382.83 595.7 390.44 595.28 397.98 595.61 405.52 596.25 413.01 597.14 420.44 598.61 427.9 600.17 435.33 601.73 442.74 603.62 450.22 605.31 457.72 606.72 465.26 608.2 472.92 609.23 480.65 609.74 488.48 610.11 496.47 609.85 504.58 608.94 512.81 607.75 521.22 605.85 529.75 603.27 538.39 600.36 547.16 596.77 555.99 592.54 564.82 588 573.67 582.87 582.41 577.22 590.94 571.32 599.31 564.95 607.3 558.18 614.79 551.25 621.88 543.98 628.29 536.45 633.86 528.81 638.8 520.96 642.76 512.95 645.63 504.9 647.72 496.72 648.67 488.48 648.44 480.22 647.47 471.9 645.41 463.58 642.31 455.25 638.76 446.92 634.41 438.62 629.43 430.32 624.45 422.04 619.18 413.8 613.81 405.57 608.97 397.56 604.48 389.78 600.46 381.99 597.32 374.41 594.77 367.06 592.82 359.68 591.8 352.49 591.31 345.51 591.28 338.49 591.99 331.64 592.94 324.98 594.01 318.24 595.5 311.67 596.86 305.26 597.95 298.76 599.12 292.4 599.82 286.18 599.95 279.86 599.89 273.67 599.14 267.61 597.66 261.43 595.84 255.38 593.25 249.46 589.92 243.44 586.21 237.55 581.8 231.82 576.73 226.01 571.34 220.36 565.36 214.92 558.89 209.43 552.17 204.17 545.05 199.17 537.59 194.19 529.97 189.5 522.1 185.16 514.04 180.88 505.91 177 497.64 173.53 489.31 170.21 480.94 167.35 472.54 164.99 464.15 162.83 455.75 161.2 447.39 160.14 439.08 159.29 430.78 159.03 422.54 159.38 414.4 159.95 406.25 161.09 398.38 162.78 390.79 164.63 383.18 166.99 375.83 169.8 368.74 172.71 361.62 176.03 354.73 179.72 348.07 183.43 341.35 187.47 334.82 191.78 328.48 196.05 322.04 200.57 315.74 205.29 309.58 209.91 303.28 214.72 297.07 219.69 290.93 224.53 284.62 229.51 278.34 234.63 272.1 239.6 265.65 244.71 259.21 249.95 252.78 255.05 246.15 260.28 239.54 265.66 232.97 270.91 226.25 276.33 219.61 281.9 213.1 287.37 206.55 293.03 200.2 298.87 194.13 304.63 188.15 310.6 182.56 316.78 177.43 322.9 172.56 329.25 168.27 335.82 164.64 342.35 161.39 349.13 158.89 356.14 157.17 363.12 155.92 370.36 155.49 377.84 155.89 385.32 156.71 393.05 158.3 401.04 160.65" stroke-dasharray="5 1" transform="rotate(20.200000000000003, 400, 400)" opacity="0.40"></path><path d="M405.66 171.44C413.36 173.98 421.13 177.04 428.95 180.52 436.78 184.03 444.67 187.82 452.6 191.81 460.55 195.63 468.53 199.54 476.52 203.48 484.53 207.12 492.53 210.74 500.5 214.32 508.46 217.53 516.36 220.71 524.15 223.85 531.9 226.64 539.5 229.44 546.9 232.27 554.2 234.82 561.23 237.47 567.94 240.24 574.47 242.84 580.6 245.62 586.26 248.62 594.09 253.11 606.35 263.51 610.56 269.49 613.51 275.84 615.29 290.27 614.22 298.32 613.06 303.82 611.34 309.62 609.11 315.7 606.86 321.8 604.27 328.15 601.4 334.72 598.78 341.31 596.06 348.11 593.36 355.1 591.14 362.09 589.09 369.26 587.27 376.58 586.13 383.91 585.31 391.23 584.83 398.53 585.01 405.83 585.45 413.13 586.11 420.42 587.29 427.74 588.56 435.08 589.83 442.43 591.42 449.86 592.86 457.33 594.06 464.86 595.36 472.49 596.27 480.21 596.76 488.01 597.15 495.94 597 503.98 596.27 512.11 595.34 520.36 593.78 528.69 591.61 537.06 589.16 545.51 586.1 553.94 582.44 562.3 578.52 570.62 574.05 578.76 569.06 586.62 563.85 594.27 558.18 601.51 552.11 608.21 545.88 614.5 539.3 620.1 532.43 624.89 525.45 629.09 518.24 632.37 510.83 634.63 503.37 636.21 495.76 636.75 488.05 636.22 480.3 635.07 472.48 632.94 464.61 629.9 456.74 626.47 448.82 622.35 440.91 617.66 432.99 612.99 425.07 608.06 417.17 603.02 409.26 598.46 401.55 594.18 394.04 590.29 386.52 587.18 379.19 584.57 372.05 582.48 364.88 581.23 357.9 580.45 351.08 580.07 344.23 580.38 337.54 580.94 331 581.64 324.41 582.76 317.96 583.81 311.65 584.67 305.26 585.68 299 586.3 292.88 586.48 286.66 586.55 280.56 586.04 274.58 584.91 268.51 583.52 262.56 581.47 256.75 578.75 250.84 575.72 245.08 572.04 239.47 567.75 233.8 563.17 228.31 558.02 223.01 552.39 217.69 546.52 212.6 540.23 207.77 533.57 202.96 526.76 198.45 519.66 194.28 512.33 190.19 504.91 186.47 497.32 183.16 489.6 180 481.85 177.28 474.01 175.05 466.14 173 458.25 171.46 450.35 170.47 442.47 169.69 434.58 169.46 426.72 169.82 418.92 170.38 411.1 171.5 403.52 173.14 396.17 174.94 388.81 177.22 381.67 179.94 374.74 182.76 367.78 185.98 361.02 189.55 354.44 193.16 347.8 197.08 341.32 201.28 334.98 205.45 328.56 209.86 322.25 214.47 316.04 219.01 309.7 223.73 303.43 228.62 297.22 233.38 290.86 238.3 284.52 243.35 278.21 248.27 271.74 253.32 265.28 258.49 258.85 263.53 252.26 268.71 245.71 274.02 239.23 279.21 232.66 284.55 226.19 290.03 219.88 295.41 213.57 300.97 207.5 306.68 201.72 312.33 196.08 318.15 190.82 324.17 186.04 330.13 181.52 336.3 177.57 342.67 174.25 349 171.3 355.56 169.06 362.34 167.57 369.09 166.5 376.08 166.2 383.29 166.68 390.5 167.55 397.96 169.14 405.65 171.44" stroke-dasharray="9 7" transform="rotate(24.24, 400, 400)" opacity="0.13"></path><path d="M410.03 182.23C417.41 184.7 424.86 187.66 432.34 191.02 439.82 194.42 447.35 198.1 454.89 201.98 462.44 205.73 470.01 209.58 477.56 213.49 485.11 217.13 492.63 220.78 500.09 224.4 507.52 227.71 514.87 230.98 522.08 234.22 529.22 237.14 536.2 240.07 542.94 243.01 549.58 245.68 555.93 248.42 561.94 251.26 570.49 255.3 585.03 264.06 590.79 268.92 595.52 273.96 601.39 285.46 602.47 291.96 602.52 298.78 599.44 313.95 596.57 322.25 594.53 327.89 592.18 333.79 589.6 339.93 587.25 346.07 584.82 352.45 582.38 359.03 580.38 365.62 578.52 372.42 576.84 379.41 575.75 386.4 574.94 393.43 574.4 400.47 574.44 407.53 574.71 414.63 575.15 421.75 576.07 428.9 577.06 436.1 578.06 443.35 579.37 450.65 580.54 458.02 581.53 465.46 582.63 472.97 583.42 480.57 583.83 488.25 584.2 496.02 584.11 503.86 583.52 511.76 582.78 519.74 581.49 527.74 579.65 535.74 577.6 543.74 574.98 551.68 571.83 559.48 568.45 567.19 564.56 574.66 560.18 581.81 555.6 588.72 550.58 595.18 545.17 601.09 539.6 606.59 533.68 611.42 527.46 615.48 521.14 618.99 514.56 621.64 507.76 623.36 500.9 624.49 493.86 624.67 486.69 623.9 479.49 622.6 472.17 620.44 464.78 617.48 457.37 614.2 449.9 610.31 442.4 605.91 434.89 601.56 427.35 596.95 419.79 592.23 412.24 587.94 404.84 583.87 397.62 580.13 390.38 577.07 383.31 574.43 376.39 572.23 369.46 570.77 362.68 569.73 356.04 569.04 349.38 568.99 342.85 569.17 336.46 569.5 330.02 570.26 323.7 570.98 317.51 571.59 311.26 572.38 305.12 572.88 299.1 573.02 293.01 573.13 287.02 572.76 281.16 571.87 275.22 570.81 269.4 569.17 263.71 566.94 257.95 564.48 252.34 561.42 246.88 557.81 241.38 553.95 236.05 549.56 230.92 544.69 225.79 539.61 220.89 534.11 216.24 528.23 211.64 522.2 207.32 515.85 203.34 509.25 199.44 502.55 195.9 495.63 192.76 488.56 189.76 481.44 187.19 474.19 185.09 466.86 183.16 459.51 181.72 452.1 180.8 444.66 180.08 437.22 179.89 429.76 180.25 422.31 180.82 414.85 181.9 407.57 183.49 400.48 185.23 393.37 187.42 386.44 190.04 379.68 192.77 372.89 195.87 366.25 199.32 359.76 202.81 353.21 206.61 346.79 210.67 340.47 214.72 334.08 219.01 327.78 223.51 321.55 227.94 315.21 232.56 308.92 237.34 302.68 242.03 296.31 246.86 289.97 251.82 283.65 256.67 277.21 261.65 270.79 266.75 264.42 271.73 257.94 276.84 251.52 282.07 245.19 287.2 238.82 292.45 232.58 297.84 226.52 303.14 220.51 308.59 214.75 314.2 209.31 319.72 204.01 325.42 199.12 331.28 194.69 337.09 190.53 343.09 186.92 349.27 183.92 355.42 181.27 361.76 179.28 368.31 178 374.83 177.12 381.57 176.94 388.52 177.5 395.47 178.4 402.63 179.99 410.02 182.23" stroke-dasharray="11 0" transform="rotate(28.28, 400, 400)" opacity="0.10"></path><path d="M413.96 193.02C421.02 195.41 428.12 198.26 435.24 201.5 442.35 204.78 449.49 208.34 456.62 212.11 463.75 215.76 470.87 219.54 477.94 223.39 485.01 227.02 492.02 230.67 498.94 234.32 505.82 237.68 512.59 241.03 519.2 244.36 525.74 247.4 532.08 250.43 538.17 253.48 544.15 256.28 549.83 259.12 555.18 262.04 562.74 266.18 575.4 274.94 580.32 279.69 584.32 284.54 589.09 295.43 589.84 301.52 589.72 307.88 586.74 321.97 584.12 329.69 582.29 334.93 580.18 340.43 577.87 346.18 575.78 351.92 573.62 357.91 571.43 364.13 569.64 370.34 567.95 376.79 566.4 383.45 565.38 390.12 564.57 396.85 563.98 403.64 563.91 410.44 564.01 417.3 564.27 424.21 564.95 431.16 565.69 438.17 566.43 445.24 567.46 452.35 568.39 459.54 569.16 466.8 570.06 474.11 570.69 481.5 571.01 488.94 571.33 496.43 571.25 503.98 570.74 511.54 570.13 519.13 569.04 526.7 567.47 534.22 565.74 541.7 563.5 549.06 560.77 556.23 557.87 563.27 554.49 570.03 550.65 576.44 546.65 582.59 542.23 588.27 537.42 593.41 532.47 598.16 527.18 602.25 521.58 605.62 515.88 608.5 509.91 610.59 503.71 611.84 497.44 612.56 490.98 612.45 484.35 611.49 477.7 610.09 470.9 607.93 463.99 605.06 457.08 601.95 450.06 598.3 442.98 594.19 435.9 590.14 428.76 585.85 421.57 581.44 414.38 577.41 407.32 573.56 400.4 569.97 393.46 566.98 386.66 564.33 379.99 562.05 373.31 560.43 366.74 559.15 360.31 558.2 353.85 557.82 347.5 557.65 341.28 557.63 335.01 558.03 328.85 558.43 322.81 558.75 316.71 559.29 310.72 559.61 304.83 559.66 295.97 559.58 278.71 557.17 270.34 554.65 264.77 552.64 259.32 550.09 254.04 547.05 248.73 543.8 243.6 540.07 238.67 535.88 233.75 531.52 229.06 526.73 224.62 521.57 220.23 516.28 216.12 510.66 212.34 504.75 208.64 498.75 205.3 492.51 202.34 486.07 199.51 479.59 197.1 472.93 195.13 466.16 193.32 459.36 191.98 452.46 191.14 445.48 190.48 438.5 190.32 431.46 190.69 424.37 191.25 417.29 192.3 410.33 193.82 403.5 195.49 396.67 197.6 389.96 200.11 383.38 202.73 376.78 205.71 370.28 209.02 363.9 212.38 357.47 216.03 351.13 219.95 344.87 223.87 338.54 228.03 332.28 232.38 326.07 236.7 319.77 241.2 313.52 245.85 307.3 250.43 300.98 255.16 294.7 260.02 288.44 264.78 282.1 269.67 275.8 274.68 269.55 279.59 263.24 284.62 257.02 289.76 250.91 294.8 244.79 299.97 238.83 305.27 233.08 310.48 227.39 315.82 221.98 321.3 216.9 326.71 211.98 332.28 207.47 337.99 203.41 343.65 199.61 349.48 196.34 355.48 193.65 361.43 191.3 367.57 189.56 373.89 188.49 380.19 187.77 386.68 187.71 393.35 188.33 400.02 189.27 406.89 190.84 413.95 193.02" stroke-dasharray="7 7" transform="rotate(32.32, 400, 400)" opacity="0.66"></path><path d="M417.3 203.81C424.02 206.11 430.75 208.86 437.48 211.96 444.2 215.11 450.92 218.54 457.61 222.18 464.3 225.73 470.95 229.41 477.53 233.19 484.09 236.77 490.57 240.41 496.94 244.05 503.26 247.45 509.45 250.85 515.45 254.24 521.38 257.38 527.09 260.52 532.55 263.66 540.42 268.05 554.3 276.79 560.14 281.26 569.02 290.38 576.65 305.58 577.14 311.36 576.92 317.35 574.12 330.56 571.75 337.8 569.19 345.28 563.41 361.47 560.51 370.16 558.92 376.03 557.39 382.14 555.97 388.48 555 394.83 554.2 401.26 553.58 407.77 553.41 414.28 553.37 420.88 553.45 427.54 553.92 434.23 554.43 440.99 554.93 447.82 555.71 454.68 556.4 461.61 556.95 468.59 557.65 475.61 558.12 482.69 558.32 489.79 558.56 496.92 558.45 504.06 557.98 511.18 557.45 518.3 556.51 525.35 555.14 532.31 553.65 539.19 551.72 545.91 549.36 552.4 546.85 558.74 543.91 564.77 540.55 570.43 537.06 575.82 533.17 580.76 528.91 585.15 522.18 590.89 507 598.45 498.68 600.07 493 600.46 487.09 600.1 481.01 599 474.89 597.54 468.62 595.41 462.2 592.66 455.78 589.72 449.24 586.31 442.6 582.49 435.95 578.73 429.22 574.75 422.42 570.65 415.62 566.88 408.91 563.25 402.31 559.82 395.7 556.91 389.18 554.27 382.78 551.94 376.37 550.19 370.05 548.72 363.84 547.53 357.6 546.85 351.47 546.37 345.43 546.03 339.37 546.08 333.39 546.15 327.52 546.19 318.7 546.52 301.47 546.28 293.09 545.44 284.76 544.14 268.68 539.26 260.98 535.6 255.9 532.87 250.99 529.69 246.28 526.08 241.59 522.34 237.12 518.2 232.91 513.69 228.75 509.06 224.87 504.11 221.29 498.85 217.82 493.52 214.67 487.92 211.9 482.1 209.25 476.24 207 470.17 205.16 463.95 203.49 457.7 202.25 451.31 201.48 444.81 200.88 438.3 200.76 431.69 201.13 424.99 201.67 418.29 202.69 411.67 204.14 405.14 205.74 398.6 207.76 392.14 210.15 385.76 212.64 379.37 215.49 373.05 218.65 366.81 221.87 360.53 225.38 354.31 229.14 348.14 232.91 341.93 236.91 335.76 241.11 329.63 245.28 323.43 249.64 317.27 254.15 311.14 258.61 304.94 263.21 298.78 267.94 292.66 272.6 286.48 277.38 280.36 282.28 274.31 287.09 268.24 292.02 262.27 297.05 256.43 302 250.62 307.07 244.99 312.25 239.59 317.36 234.28 322.58 229.24 327.93 224.55 333.22 220.02 338.65 215.89 344.2 212.21 349.71 208.78 355.37 205.85 361.17 203.47 366.93 201.39 372.86 199.9 378.94 199.02 385 198.46 391.23 198.51 397.63 199.19 404.01 200.15 410.57 201.69 417.29 203.81" stroke-dasharray="9 6" transform="rotate(36.36, 400, 400)" opacity="1.00"></path><path d="M419.89 214.6C426.25 216.81 432.6 219.44 438.92 222.4 445.24 225.42 451.53 228.7 457.76 232.19 470.21 238.95 482.38 246.18 494.02 253.6 505.51 260.2 516.3 266.85 526.1 273.51 535.49 279.32 543.63 285.33 550.25 291.61 556.22 297.33 560.49 303.62 562.89 310.55 564.67 317.22 564.69 324.74 563.06 333.13 561.3 341.43 558.39 350.69 554.62 360.88 552.18 368.62 547.52 385.28 545.53 394.2 544.62 400.22 543.84 406.34 543.19 412.54 542.94 418.75 542.78 425.05 542.71 431.41 543.58 444.19 544.41 457.28 544.92 470.53 546.03 483.83 546.24 497.24 545.3 510.47 544.26 523.55 541.73 536.17 537.68 547.9 533.21 558.96 527.18 568.6 519.74 576.31 511.93 582.72 502.85 586.75 492.73 588.09 482.41 587.97 471.23 585.31 459.41 580.27 453.47 577.52 447.4 574.34 441.21 570.81 435.02 567.34 428.71 563.66 422.31 559.86 415.91 556.35 409.57 552.93 403.31 549.67 397.04 546.86 390.84 544.26 384.73 541.91 372.47 538.7 360.5 536.37 348.9 534.7 337.21 534.5 325.81 534.25 314.81 533.54 303.69 533.28 292.95 531.9 282.71 529.17 272.42 526.19 262.7 521.61 253.74 515.47 244.91 508.93 236.99 500.92 230.21 491.67 223.81 482.15 218.73 471.6 215.2 460.24 213.65 454.54 212.52 448.65 211.82 442.62 211.29 436.59 211.2 430.41 211.56 424.12 212.1 417.82 213.07 411.56 214.46 405.34 215.98 399.12 217.89 392.93 220.16 386.8 224.98 374.5 231.08 362.32 238.22 350.34 245.44 338.21 253.51 326.16 262.24 314.27 270.81 302.22 279.95 290.32 289.52 278.78 298.83 267.24 308.6 256.24 318.74 246.11 328.65 236.41 339.02 227.95 349.82 221.11 360.47 215.22 371.65 211.29 383.33 209.6 389.15 209.18 395.11 209.34 401.2 210.06 407.29 211.04 413.52 212.55 419.88 214.6" stroke-dasharray="4 1" transform="rotate(40.400000000000006, 400, 400)" opacity="0.13"></path><path d="M421.63 225.39C433.61 229.74 445.44 235.47 456.97 242.16 468.48 248.67 479.61 255.7 490.15 262.97 500.54 269.56 510.18 276.27 518.83 283.01 527.11 289 534.2 295.16 539.86 301.55 544.99 307.4 548.58 313.71 550.51 320.55 551.98 327.1 551.93 334.38 550.43 342.42 548.91 350.33 546.39 359.12 543.11 368.76 540.55 378.36 537.8 388.86 535.09 400.26 533.76 411.65 532.75 423.44 532.04 435.48 532.53 447.55 532.95 459.88 533.08 472.29 533.8 484.69 533.75 497.08 532.73 509.17 531.73 521.04 529.43 532.33 525.82 542.64 521.91 552.28 516.61 560.5 510.02 566.9 503.12 572.14 495.03 575.22 485.93 575.91 476.64 575.41 466.48 572.69 455.63 567.91 444.72 562.73 433.21 556.29 421.24 549.07 409.27 542.86 397.43 537.04 385.83 531.93 374.22 528.52 362.81 525.81 351.7 523.66 340.54 522.85 329.64 522.04 319.09 520.92 308.49 520.33 298.24 518.85 288.48 516.28 278.73 513.63 269.55 509.61 261.1 504.23 252.82 498.57 245.42 491.56 239.11 483.35 233.17 474.94 228.48 465.47 225.24 455.14 222.55 444.73 221.42 433.58 222 421.82 223.18 410.05 225.96 398.26 230.14 386.55 234.69 374.82 240.46 363.12 247.21 351.54 254.08 339.87 261.78 328.26 270.12 316.81 278.37 305.29 287.17 293.97 296.4 283.05 305.44 272.24 314.9 262.02 324.72 252.69 334.35 243.84 344.39 236.21 354.8 230.13 365.09 224.93 375.83 221.56 386.97 220.23 398.07 219.92 409.64 221.64 421.62 225.39" stroke-dasharray="6 2" transform="rotate(44.44, 400, 400)" opacity="0.13"></path><path d="M422.44 236.18C433.64 240.32 444.61 245.74 455.2 252.08 465.75 258.31 475.86 265.09 485.34 272.16 494.67 278.68 503.23 285.36 510.81 292.12 518.08 298.24 524.22 304.52 529.04 310.99 533.45 316.96 536.48 323.31 538.06 330.09 539.3 336.58 539.22 343.68 537.9 351.43 536.63 359.04 534.49 367.42 531.66 376.56 529.49 385.65 527.1 395.57 524.66 406.3 523.39 417.03 522.32 428.11 521.44 439.37 521.59 450.66 521.64 462.12 521.43 473.57 521.78 484.97 521.47 496.24 520.34 507.11 519.3 517.71 517.16 527.64 513.88 536.56 510.41 544.83 505.72 551.74 499.85 556.93 493.76 561.14 486.56 563.4 478.38 563.56 470.06 562.78 460.87 560.06 450.95 555.56 440.99 550.8 430.38 544.91 419.26 538.28 408.14 532.52 397.05 527.01 386.13 522.02 375.2 518.46 364.41 515.45 353.87 512.9 343.31 511.54 332.96 510.22 322.95 508.68 312.92 507.71 303.23 506.05 294.03 503.52 284.87 501.03 276.26 497.4 268.38 492.59 260.68 487.61 253.82 481.43 247.99 474.12 242.53 466.67 238.23 458.18 235.29 448.81 232.85 439.37 231.85 429.14 232.44 418.21 233.56 407.29 236.18 396.22 240.09 385.15 244.36 374.07 249.77 362.95 256.13 351.89 262.61 340.8 269.9 329.76 277.81 318.9 285.68 308.03 294.1 297.41 302.93 287.23 311.63 277.23 320.74 267.86 330.17 259.39 339.46 251.41 349.12 244.61 359.09 239.28 368.96 234.75 379.22 231.9 389.79 230.92 400.33 230.83 411.24 232.58 422.44 236.18" stroke-dasharray="4 6" transform="rotate(48.48, 400, 400)" opacity="0.97"></path><path d="M422.29 246.97C432.68 250.88 442.77 255.99 452.42 261.96 462.04 267.88 471.15 274.36 479.61 281.17 487.94 287.56 495.49 294.15 502.1 300.86 508.46 307.03 513.76 313.37 517.88 319.88 521.68 325.94 524.25 332.31 525.56 339.04 526.65 345.49 526.6 352.44 525.48 359.94 524.47 367.29 522.68 375.3 520.29 383.96 518.47 392.58 516.41 401.92 514.22 411.96 513.03 422.01 511.92 432.32 510.9 442.75 510.77 453.18 510.5 463.7 509.98 474.1 509.98 484.43 509.41 494.52 508.15 504.12 507.03 513.44 504.98 522.04 501.95 529.62 498.82 536.61 494.62 542.31 489.38 546.43 483.97 549.73 477.55 551.32 470.23 551.07 462.78 550.08 454.49 547.43 445.48 543.25 436.42 538.9 426.71 533.54 416.45 527.49 406.19 522.18 395.9 516.99 385.69 512.16 375.5 508.53 365.39 505.3 355.48 502.42 345.57 500.6 335.86 498.8 326.45 496.86 317.05 495.5 307.99 493.6 299.39 491 290.87 488.55 282.89 485.16 275.6 480.77 268.5 476.3 262.2 470.78 256.88 464.24 251.9 457.59 248 449.98 245.35 441.49 243.16 432.95 242.29 423.6 242.87 413.53 243.95 403.46 246.39 393.17 250.03 382.8 254 372.44 259.04 361.99 264.96 351.59 271.03 341.19 277.88 330.84 285.32 320.69 292.76 310.59 300.74 300.77 309.12 291.43 317.42 282.31 326.11 273.84 335.09 266.26 343.98 259.17 353.19 253.19 362.67 248.58 372.07 244.69 381.79 242.33 391.74 241.67 401.68 241.77 411.89 243.53 422.29 246.97" stroke-dasharray="1 10" transform="rotate(52.52, 400, 400)" opacity="0.37"></path><path d="M421.18 257.76C430.75 261.43 439.95 266.2 448.69 271.79 457.38 277.36 465.54 283.5 473.04 290.01 480.43 296.19 487.06 302.62 492.81 309.2 498.35 315.34 502.94 321.67 506.46 328.14 509.75 334.24 511.97 340.6 513.09 347.25 514.08 353.65 514.1 360.46 513.2 367.7 512.43 374.81 510.98 382.47 508.98 390.66 507.49 398.82 505.73 407.57 503.78 416.92 502.67 426.26 501.54 435.77 500.42 445.31 500.05 454.83 499.51 464.34 498.73 473.65 498.42 482.87 497.61 491.76 496.21 500.1 494.99 508.17 492.98 515.49 490.13 521.82 485.35 529.94 471.05 538.5 461.61 538.46 454.95 537.35 447.5 534.81 439.36 530.96 431.17 527.03 422.33 522.19 412.94 516.7 403.54 511.84 394.06 506.98 384.62 502.35 375.2 498.72 365.82 495.34 356.61 492.23 347.41 490.01 338.38 487.82 329.65 485.52 320.94 483.77 312.56 481.6 304.62 478.89 296.78 476.38 289.45 473.11 282.79 469.01 276.32 464.91 270.6 459.89 265.78 453.99 261.28 448.02 257.78 441.16 255.42 433.48 253.47 425.77 252.73 417.26 253.31 408.04 254.32 398.82 256.58 389.34 259.94 379.75 263.6 370.17 268.26 360.49 273.73 350.85 279.37 341.24 285.73 331.69 292.67 322.36 299.64 313.12 307.12 304.19 314.99 295.76 322.82 287.57 331.03 280.02 339.5 273.35 347.92 267.13 356.62 261.96 365.54 258.04 374.42 254.76 383.55 252.86 392.84 252.48 402.12 252.74 411.6 254.5 421.18 257.76" stroke-dasharray="4 1" transform="rotate(56.56, 400, 400)" opacity="0.96"></path><path d="M419.16 268.55C427.89 271.97 436.22 276.39 444.06 281.58 451.86 286.78 459.12 292.54 465.72 298.68 472.24 304.59 478.04 310.78 483.02 317.15 487.86 323.18 491.83 329.4 494.85 335.77 497.73 341.83 499.67 348.12 500.68 354.63 501.62 360.93 501.73 367.57 501.04 374.54 500.51 381.41 499.39 388.7 497.75 396.41 496.55 404.09 495.07 412.25 493.35 420.87 492.31 429.48 491.19 438.15 490 446.76 489.44 455.35 488.68 463.83 487.68 472.03 487.09 480.13 486.07 487.84 484.55 494.97 482.21 504.91 474.06 519.77 468.05 524.01 463.72 525.91 458.58 526.51 452.7 525.75 446.75 524.59 440.08 522.21 432.74 518.71 425.38 515.18 417.4 510.86 408.87 505.91 400.34 501.48 391.69 496.99 383.05 492.6 374.43 489.01 365.83 485.58 357.37 482.31 348.93 479.79 340.65 477.27 332.63 474.67 324.67 472.56 317.01 470.14 309.77 467.29 302.65 464.67 296 461.44 289.98 457.53 284.15 453.68 279.01 449.06 274.71 443.67 270.69 438.26 267.58 432.07 265.51 425.12 263.8 418.15 263.18 410.45 263.75 402.07 264.69 393.69 266.77 385.05 269.84 376.3 273.18 367.56 277.44 358.72 282.45 349.93 287.62 341.18 293.48 332.52 299.87 324.09 306.32 315.79 313.27 307.8 320.58 300.32 327.88 293.09 335.54 286.49 343.44 280.71 351.32 275.34 359.45 270.94 367.76 267.69 376.05 264.97 384.53 263.48 393.12 263.35 401.71 263.75 410.42 265.48 419.16 268.55" stroke-dasharray="9 1" transform="rotate(60.599999999999994, 400, 400)" opacity="0.14"></path><path d="M416.31 279.34C424.2 282.5 431.67 286.56 438.64 291.32 445.59 296.12 452 301.47 457.79 307.2 463.51 312.77 468.57 318.64 472.89 324.71 477.1 330.54 480.54 336.57 483.17 342.73 485.7 348.66 487.44 354.8 488.38 361.11 489.3 367.25 489.51 373.66 489.04 380.32 488.73 386.89 487.89 393.79 486.59 401 485.65 408.18 484.41 415.72 482.91 423.58 481.96 431.44 480.86 439.26 479.64 446.93 478.93 454.58 478.01 462.02 476.84 469.14 476.03 476.15 474.83 482.73 473.2 488.72 470.75 497.02 462.98 509 457.47 512.2 451.25 513.72 435.38 510.74 425.84 506.5 419.25 503.38 412.09 499.54 404.42 495.12 396.74 491.13 388.94 487 381.13 482.88 373.33 479.41 365.55 475.99 357.88 472.65 350.24 469.93 342.74 467.17 335.5 464.34 328.31 461.95 321.41 459.29 314.91 456.31 308.52 453.56 302.58 450.33 297.21 446.56 292.03 442.88 287.47 438.56 283.68 433.61 280.14 428.66 277.42 423.03 275.63 416.76 274.14 410.47 273.63 403.53 274.18 395.98 275.06 388.43 276.95 380.65 279.73 372.76 282.75 364.9 286.59 356.96 291.13 349.08 295.82 341.26 301.14 333.54 306.96 326.08 312.86 318.74 319.21 311.74 325.92 305.23 332.64 298.96 339.68 293.28 346.96 288.38 354.23 283.83 361.73 280.16 369.37 277.51 377.01 275.31 384.8 274.2 392.65 274.28 400.5 274.79 408.42 276.47 416.31 279.34" stroke-dasharray="8 4" transform="rotate(64.64, 400, 400)" opacity="0.58"></path><path d="M412.77 290.13C419.81 293.02 426.44 296.71 432.59 301.03 438.71 305.41 444.33 310.3 449.37 315.57 454.37 320.74 458.76 326.23 462.51 331.92 466.18 337.45 469.18 343.18 471.49 349.05 473.74 354.75 475.32 360.63 476.22 366.66 477.15 372.55 477.46 378.66 477.2 384.94 477.08 391.15 476.5 397.6 475.49 404.27 474.79 410.91 473.77 417.8 472.47 424.89 471.61 431.98 470.56 438.93 469.34 445.66 468.53 452.37 467.48 458.82 466.2 464.89 464.54 473.64 459.62 488.17 456.12 493.53 452.18 497.69 441.49 501.06 434.7 500.17 429.96 499.07 424.66 497.11 418.82 494.34 412.97 491.6 406.61 488.24 399.78 484.33 392.95 480.77 385.99 477.02 379.02 473.21 372.07 469.9 365.12 466.57 358.27 463.25 351.47 460.41 344.79 457.52 338.34 454.54 331.95 451.93 325.83 449.11 320.09 446.03 314.45 443.18 309.22 439.93 304.51 436.28 297.98 430.68 288.46 416.95 285.76 408.74 284.49 403.07 284.09 396.86 284.62 390.13 285.42 383.39 287.12 376.47 289.6 369.48 292.29 362.52 295.72 355.51 299.77 348.58 303.97 341.71 308.73 334.97 313.96 328.5 319.27 322.14 325 316.13 331.05 310.58 337.14 305.25 343.53 300.47 350.13 296.4 356.74 292.62 363.55 289.63 370.48 287.54 377.41 285.81 384.46 285.03 391.53 285.27 398.62 285.87 405.73 287.48 412.77 290.13" stroke-dasharray="5 6" transform="rotate(68.68, 400, 400)" opacity="0.86"></path><path d="M408.68 300.91C421.08 306.29 431.87 314.27 440.65 323.81 449.28 333.17 455.79 343.69 459.9 354.75 463.94 365.34 465.8 376.65 465.53 388.36 465.79 399.87 464.59 412.11 462.04 424.71 460.85 437.31 458.7 449.06 455.75 459.32 453.77 469.31 450.38 477.35 445.5 482.7 440.9 487.34 434.35 488.98 425.95 487.34 417.52 485.29 407.15 480.56 395.15 473.54 383.13 467.58 370.73 460.88 358.7 454.08 346.8 448.77 335.44 442.95 325.37 436.52 315.69 430.86 307.58 423.83 301.8 415.32 296.73 406.95 294.28 396.74 295.05 384.86 296.72 372.99 301.41 360.64 308.4 348.66 315.88 336.9 325.35 325.85 336.05 316.46 346.91 307.76 358.84 301.25 371.17 297.77 383.54 295.41 396.28 296.34 408.68 300.91" stroke-dasharray="7 8" transform="rotate(72.72, 400, 400)" opacity="0.89"></path><path d="M404.22 311.7C414.96 316.47 424.24 323.5 431.76 331.94 439.21 340.33 444.84 349.84 448.48 359.87 452.12 369.63 453.97 380.01 454.02 390.62 454.53 401.11 453.71 412.06 451.6 423.06 450.51 434.06 448.41 444.04 445.5 452.5 443.35 460.77 439.95 467.21 435.33 471.32 430.97 474.95 425.03 476.09 417.59 474.53 410.15 472.77 401.12 468.76 390.72 462.76 380.33 457.54 369.64 451.48 359.3 445.14 349.08 439.9 339.38 434.11 330.84 427.81 322.62 422.14 315.79 415.4 310.98 407.58 306.74 399.9 304.74 390.82 305.49 380.5 306.95 370.17 311 359.64 317.03 349.56 323.48 339.67 331.67 330.55 340.96 322.94 350.42 315.89 360.83 310.76 371.58 308.21 382.39 306.51 393.48 307.57 404.22 311.7" stroke-dasharray="6 9" transform="rotate(76.76, 400, 400)" opacity="0.21"></path><path d="M399.57 322.49C408.68 326.62 416.53 332.68 422.91 339.98 429.24 347.29 434.09 355.65 437.31 364.49 440.58 373.2 442.39 382.43 442.7 391.8 443.38 401.1 442.88 410.66 441.16 420.05 440.18 429.43 438.21 437.73 435.45 444.59 431.59 453.86 418.93 462.75 409.76 461.76 403.27 460.31 395.52 457 386.7 451.97 377.87 447.5 368.87 442.16 360.21 436.41 351.66 431.44 343.58 425.89 336.53 419.91 329.73 414.41 324.14 408.09 320.25 401.01 316.8 394.06 315.21 386.09 315.93 377.29 317.17 368.48 320.59 359.7 325.67 351.46 331.08 343.36 337.99 336.03 345.84 330.07 353.86 324.52 362.71 320.62 371.85 318.86 381.04 317.71 390.47 318.83 399.57 322.49" stroke-dasharray="3 3" transform="rotate(80.80000000000001, 400, 400)" opacity="0.66"></path><path d="M394.95 333.28C402.45 336.76 408.94 341.82 414.24 347.93 419.52 354.09 423.63 361.17 426.45 368.69 429.34 376.16 431.06 384.08 431.56 392.05 432.32 400 432.07 408.06 430.73 415.84 428.98 426.97 421.9 443.09 416.5 447.41 410.47 449.9 393.78 446.6 383.24 441.18 375.95 437.46 368.59 432.89 361.58 427.87 354.64 423.34 348.14 418.26 342.52 412.81 337.09 407.68 332.66 401.94 329.63 395.71 326.91 389.56 325.71 382.75 326.36 375.43 327.4 368.12 330.19 361.01 334.33 354.49 338.72 348.06 344.36 342.39 350.78 337.9 357.34 333.69 364.6 330.85 372.12 329.73 379.68 329.03 387.44 330.14 394.95 333.28" stroke-dasharray="1 6" transform="rotate(84.84, 400, 400)" opacity="0.83"></path><path d="M390.54 344.07C402.41 349.86 411.21 360.41 415.97 372.57 420.96 384.72 422.62 398.34 420.29 410.69 419.2 423.03 414.68 431.59 407.88 435.16 401.57 438.5 392.09 436.99 380.51 430.39 368.92 424.77 357.52 416.11 348.86 406.47 340.69 397.63 335.92 386.73 336.8 375.04 338.69 363.34 345.9 353.04 355.83 346.44 366.16 340.5 378.66 339.15 390.54 344.07" stroke-dasharray="7 1" transform="rotate(88.88, 400, 400)" opacity="0.79"></path><path d="M386.53 354.86C395.35 359.22 402.06 367.11 405.9 376.24 409.91 385.43 411.45 395.72 409.85 404.9 407.09 417.19 390.94 424.9 378.61 419.6 369.96 415.33 361.71 408.51 355.6 400.83 349.77 393.57 346.46 384.91 347.24 376.12 348.6 367.33 353.83 360.05 361.07 355.68 368.56 351.65 377.71 351 386.53 354.86" stroke-dasharray="9 11" transform="rotate(92.92, 400, 400)" opacity="0.86"></path><path d="M383.11 365.65C394.77 371.64 401.64 386.68 399.42 398.82 398.38 410.95 389.13 415.21 377.63 408.81 366.12 403.36 356.74 390.39 357.67 378.63 359.67 366.86 371.44 360.55 383.11 365.65" stroke-dasharray="4 6" transform="rotate(96.96, 400, 400)" opacity="0.07"></path></g></svg>
